<svg xmlns="http://www.w3.org/2000/svg" viewBox="0 0 253.01 36.8" width="253.01" height="36.8" role="img" aria-label="Asociatia pentru protectia animalelor Hope"><title>Asociatia pentru protectia animalelor Hope</title><path fill="#2e9e4f" d="M0.7 17.48A4.02 5.18 -20 1 0 8.27 14.72A4.02 5.18 -20 1 0 0.7 17.48ZM7.96 9.62A4.02 5.46 -6 1 0 15.96 8.78A4.02 5.46 -6 1 0 7.96 9.62ZM16.62 9.08A4.02 5.46 10 1 0 24.55 10.47A4.02 5.46 10 1 0 16.62 9.08ZM23.5 16.3A3.74 4.89 24 1 0 30.32 19.35A3.74 4.89 24 1 0 23.5 16.3ZM14.84 17.25C9.66 17.25 5.06 22.42 5.06 27.03C5.06 30.48 7.94 32.2 10.81 32.2C12.53 32.2 13.69 31.62 14.84 31.62C15.98 31.62 17.13 32.2 18.86 32.2C21.73 32.2 24.61 30.48 24.61 27.03C24.61 22.42 20.01 17.25 14.84 17.25Z"/><path fill="#104f55" d="M55.08 7.7L60.28 7.7L60.28 29.04L55.08 29.04L55.08 20.25L46.99 20.25L46.99 29.04L41.79 29.04L41.79 7.7L46.99 7.7L46.99 16.06L55.08 16.06L55.08 7.7ZM70.82 29.28Q68.33 29.28 66.34 28.22Q64.35 27.16 63.21 25.18Q62.07 23.2 62.07 20.56L62.07 20.56Q62.07 17.94 63.22 15.95Q64.38 13.96 66.39 12.9Q68.39 11.83 70.89 11.83L70.89 11.83Q73.38 11.83 75.38 12.9Q77.39 13.96 78.55 15.95Q79.7 17.94 79.7 20.56L79.7 20.56Q79.7 23.17 78.53 25.16Q77.36 27.16 75.34 28.22Q73.32 29.28 70.82 29.28L70.82 29.28ZM70.82 24.78Q72.31 24.78 73.36 23.69Q74.41 22.6 74.41 20.56L74.41 20.56Q74.41 18.52 73.39 17.43Q72.37 16.33 70.89 16.33L70.89 16.33Q69.37 16.33 68.36 17.41Q67.36 18.49 67.36 20.56L67.36 20.56Q67.36 22.6 68.35 23.69Q69.33 24.78 70.82 24.78L70.82 24.78ZM86.75 14.48Q87.51 13.29 88.85 12.56Q90.19 11.83 91.98 11.83L91.98 11.83Q94.08 11.83 95.78 12.9Q97.49 13.96 98.47 15.94Q99.46 17.91 99.46 20.53L99.46 20.53Q99.46 23.14 98.47 25.13Q97.49 27.12 95.78 28.2Q94.08 29.28 91.98 29.28L91.98 29.28Q90.22 29.28 88.87 28.55Q87.51 27.82 86.75 26.67L86.75 26.67L86.75 37.13L81.56 37.13L81.56 12.08L86.75 12.08L86.75 14.48ZM94.17 20.53Q94.17 18.58 93.09 17.47Q92.01 16.36 90.43 16.36L90.43 16.36Q88.88 16.36 87.8 17.49Q86.72 18.61 86.72 20.56L86.72 20.56Q86.72 22.5 87.8 23.63Q88.88 24.75 90.43 24.75L90.43 24.75Q91.98 24.75 93.08 23.61Q94.17 22.47 94.17 20.53L94.17 20.53ZM117.28 20.28Q117.28 21.01 117.18 21.8L117.18 21.8L105.42 21.8Q105.54 23.39 106.44 24.22Q107.33 25.06 108.64 25.06L108.64 25.06Q110.59 25.06 111.35 23.42L111.35 23.42L116.88 23.42Q116.45 25.09 115.35 26.43Q114.24 27.76 112.56 28.52Q110.89 29.28 108.82 29.28L108.82 29.28Q106.33 29.28 104.39 28.22Q102.44 27.16 101.35 25.18Q100.25 23.2 100.25 20.56L100.25 20.56Q100.25 17.91 101.33 15.94Q102.41 13.96 104.36 12.9Q106.3 11.83 108.82 11.83L108.82 11.83Q111.29 11.83 113.2 12.87Q115.12 13.9 116.2 15.82Q117.28 17.73 117.28 20.28L117.28 20.28ZM105.45 18.92L111.96 18.92Q111.96 17.58 111.04 16.79Q110.13 16 108.76 16L108.76 16Q107.46 16 106.56 16.76Q105.66 17.52 105.45 18.92L105.45 18.92Z"/><path fill="#c2c7c5" d="M126.93 1.6h1.5v33.6h-1.5Z"/><path fill="#0b1f16" d="M143.32 15.49L142.76 13.9L139.5 13.9L138.94 15.49L137.61 15.49L140.4 7.69L141.87 7.69L144.66 15.49L143.32 15.49ZM139.86 12.86L142.4 12.86L141.14 9.24L139.86 12.86ZM148.11 15.59Q147.39 15.59 146.81 15.33Q146.23 15.06 145.9 14.61Q145.56 14.16 145.54 13.6L145.54 13.6L146.86 13.6Q146.89 13.99 147.23 14.25Q147.58 14.51 148.09 14.51L148.09 14.51Q148.63 14.51 148.93 14.31Q149.22 14.1 149.22 13.77L149.22 13.77Q149.22 13.43 148.89 13.26Q148.56 13.09 147.84 12.89L147.84 12.89Q147.15 12.7 146.71 12.52Q146.28 12.34 145.96 11.97Q145.64 11.6 145.64 11L145.64 11Q145.64 10.5 145.93 10.1Q146.22 9.69 146.76 9.45Q147.31 9.22 148.01 9.22L148.01 9.22Q149.07 9.22 149.71 9.75Q150.35 10.28 150.4 11.2L150.4 11.2L149.12 11.2Q149.09 10.78 148.79 10.54Q148.48 10.29 147.97 10.29L147.97 10.29Q147.46 10.29 147.19 10.48Q146.93 10.67 146.93 10.99L146.93 10.99Q146.93 11.23 147.11 11.4Q147.28 11.57 147.54 11.66Q147.8 11.76 148.3 11.9L148.3 11.9Q148.98 12.08 149.41 12.27Q149.84 12.45 150.15 12.81Q150.47 13.17 150.48 13.76L150.48 13.76Q150.48 14.29 150.19 14.7Q149.89 15.12 149.36 15.35Q148.83 15.59 148.11 15.59L148.11 15.59ZM154.53 15.59Q153.66 15.59 152.95 15.19Q152.25 14.79 151.84 14.07Q151.44 13.35 151.44 12.4L151.44 12.4Q151.44 11.46 151.85 10.73Q152.27 10 152.99 9.61Q153.7 9.22 154.59 9.22L154.59 9.22Q155.47 9.22 156.19 9.61Q156.91 10 157.32 10.73Q157.73 11.46 157.73 12.4L157.73 12.4Q157.73 13.34 157.31 14.07Q156.88 14.79 156.15 15.19Q155.42 15.59 154.53 15.59L154.53 15.59ZM154.53 14.48Q155.02 14.48 155.45 14.24Q155.89 14.01 156.15 13.54Q156.42 13.07 156.42 12.4L156.42 12.4Q156.42 11.72 156.17 11.26Q155.91 10.8 155.48 10.56Q155.06 10.32 154.56 10.32L154.56 10.32Q154.07 10.32 153.65 10.56Q153.23 10.8 152.99 11.26Q152.74 11.72 152.74 12.4L152.74 12.4Q152.74 13.39 153.25 13.94Q153.76 14.48 154.53 14.48L154.53 14.48ZM158.57 12.4Q158.57 11.44 158.96 10.72Q159.35 10 160.03 9.61Q160.71 9.22 161.6 9.22L161.6 9.22Q162.72 9.22 163.45 9.75Q164.19 10.28 164.44 11.27L164.44 11.27L163.07 11.27Q162.9 10.81 162.53 10.55Q162.16 10.29 161.6 10.29L161.6 10.29Q160.81 10.29 160.35 10.85Q159.88 11.4 159.88 12.4L159.88 12.4Q159.88 13.39 160.35 13.95Q160.81 14.51 161.6 14.51L161.6 14.51Q162.71 14.51 163.07 13.54L163.07 13.54L164.44 13.54Q164.17 14.48 163.43 15.03Q162.7 15.59 161.6 15.59L161.6 15.59Q160.71 15.59 160.03 15.19Q159.35 14.79 158.96 14.07Q158.57 13.35 158.57 12.4L158.57 12.4ZM166.37 8.5Q166.02 8.5 165.79 8.26Q165.55 8.03 165.55 7.68L165.55 7.68Q165.55 7.33 165.79 7.1Q166.02 6.86 166.37 6.86L166.37 6.86Q166.71 6.86 166.94 7.1Q167.18 7.33 167.18 7.68L167.18 7.68Q167.18 8.03 166.94 8.26Q166.71 8.5 166.37 8.5L166.37 8.5ZM165.72 9.32L167 9.32L167 15.49L165.72 15.49L165.72 9.32ZM168.25 12.37Q168.25 11.44 168.64 10.73Q169.02 10.01 169.69 9.61Q170.36 9.22 171.16 9.22L171.16 9.22Q171.89 9.22 172.43 9.5Q172.98 9.79 173.3 10.21L173.3 10.21L173.3 9.32L174.59 9.32L174.59 15.49L173.3 15.49L173.3 14.57Q172.98 15.01 172.42 15.3Q171.86 15.59 171.14 15.59L171.14 15.59Q170.35 15.59 169.68 15.18Q169.02 14.77 168.64 14.04Q168.25 13.3 168.25 12.37L168.25 12.37ZM173.3 12.4Q173.3 11.76 173.04 11.29Q172.78 10.82 172.35 10.57Q171.92 10.32 171.43 10.32L171.43 10.32Q170.94 10.32 170.51 10.57Q170.09 10.81 169.82 11.27Q169.56 11.74 169.56 12.37L169.56 12.37Q169.56 13.01 169.82 13.49Q170.09 13.98 170.52 14.23Q170.95 14.48 171.43 14.48L171.43 14.48Q171.92 14.48 172.35 14.23Q172.78 13.99 173.04 13.51Q173.3 13.04 173.3 12.4L173.3 12.4ZM179.26 10.36L177.76 10.36L177.76 13.77Q177.76 14.12 177.92 14.27Q178.08 14.42 178.48 14.42L178.48 14.42L179.26 14.42L179.26 15.49L178.25 15.49Q177.39 15.49 176.93 15.08Q176.47 14.68 176.47 13.77L176.47 13.77L176.47 10.36L175.74 10.36L175.74 9.32L176.47 9.32L176.47 7.78L177.76 7.78L177.76 9.32L179.26 9.32L179.26 10.36ZM181.09 8.5Q180.74 8.5 180.5 8.26Q180.27 8.03 180.27 7.68L180.27 7.68Q180.27 7.33 180.5 7.1Q180.74 6.86 181.09 6.86L181.09 6.86Q181.42 6.86 181.66 7.1Q181.89 7.33 181.89 7.68L181.89 7.68Q181.89 8.03 181.66 8.26Q181.42 8.5 181.09 8.5L181.09 8.5ZM180.44 9.32L181.71 9.32L181.71 15.49L180.44 15.49L180.44 9.32ZM182.97 12.37Q182.97 11.44 183.35 10.73Q183.74 10.01 184.41 9.61Q185.07 9.22 185.88 9.22L185.88 9.22Q186.61 9.22 187.15 9.5Q187.69 9.79 188.02 10.21L188.02 10.21L188.02 9.32L189.31 9.32L189.31 15.49L188.02 15.49L188.02 14.57Q187.69 15.01 187.13 15.3Q186.57 15.59 185.86 15.59L185.86 15.59Q185.06 15.59 184.4 15.18Q183.74 14.77 183.35 14.04Q182.97 13.3 182.97 12.37L182.97 12.37ZM188.02 12.4Q188.02 11.76 187.76 11.29Q187.49 10.82 187.07 10.57Q186.64 10.32 186.15 10.32L186.15 10.32Q185.66 10.32 185.23 10.57Q184.8 10.81 184.54 11.27Q184.28 11.74 184.28 12.37L184.28 12.37Q184.28 13.01 184.54 13.49Q184.8 13.98 185.24 14.23Q185.67 14.48 186.15 14.48L186.15 14.48Q186.64 14.48 187.07 14.23Q187.49 13.99 187.76 13.51Q188.02 13.04 188.02 12.4L188.02 12.4ZM195.18 10.22Q195.5 9.8 196.06 9.51Q196.62 9.22 197.33 9.22L197.33 9.22Q198.13 9.22 198.8 9.61Q199.47 10.01 199.85 10.73Q200.23 11.44 200.23 12.37L200.23 12.37Q200.23 13.3 199.85 14.04Q199.47 14.77 198.8 15.18Q198.13 15.59 197.33 15.59L197.33 15.59Q196.62 15.59 196.07 15.3Q195.52 15.02 195.18 14.59L195.18 14.59L195.18 18.42L193.9 18.42L193.9 9.32L195.18 9.32L195.18 10.22ZM198.93 12.37Q198.93 11.74 198.66 11.27Q198.4 10.81 197.97 10.57Q197.54 10.32 197.05 10.32L197.05 10.32Q196.56 10.32 196.13 10.57Q195.7 10.82 195.44 11.29Q195.18 11.76 195.18 12.4L195.18 12.4Q195.18 13.04 195.44 13.51Q195.7 13.99 196.13 14.23Q196.56 14.48 197.05 14.48L197.05 14.48Q197.54 14.48 197.97 14.23Q198.4 13.98 198.66 13.49Q198.93 13.01 198.93 12.37L198.93 12.37ZM207.15 12.25Q207.15 12.6 207.1 12.88L207.1 12.88L202.39 12.88Q202.44 13.62 202.94 14.07Q203.43 14.51 204.15 14.51L204.15 14.51Q205.18 14.51 205.6 13.65L205.6 13.65L206.98 13.65Q206.7 14.5 205.97 15.05Q205.23 15.59 204.15 15.59L204.15 15.59Q203.26 15.59 202.56 15.19Q201.86 14.79 201.46 14.07Q201.07 13.35 201.07 12.4L201.07 12.4Q201.07 11.44 201.45 10.72Q201.84 10 202.54 9.61Q203.24 9.22 204.15 9.22L204.15 9.22Q205.02 9.22 205.7 9.6Q206.39 9.98 206.77 10.67Q207.15 11.36 207.15 12.25L207.15 12.25ZM202.4 11.85L205.82 11.85Q205.8 11.14 205.31 10.72Q204.82 10.29 204.09 10.29L204.09 10.29Q203.43 10.29 202.96 10.71Q202.49 11.13 202.4 11.85L202.4 11.85ZM211.52 9.22Q212.24 9.22 212.82 9.52Q213.4 9.82 213.72 10.41Q214.05 11.01 214.05 11.85L214.05 11.85L214.05 15.49L212.78 15.49L212.78 12.04Q212.78 11.21 212.37 10.77Q211.95 10.32 211.24 10.32L211.24 10.32Q210.52 10.32 210.1 10.77Q209.68 11.21 209.68 12.04L209.68 12.04L209.68 15.49L208.4 15.49L208.4 9.32L209.68 9.32L209.68 10.02Q209.99 9.64 210.48 9.43Q210.97 9.22 211.52 9.22L211.52 9.22ZM218.66 10.36L217.16 10.36L217.16 13.77Q217.16 14.12 217.32 14.27Q217.49 14.42 217.88 14.42L217.88 14.42L218.66 14.42L218.66 15.49L217.65 15.49Q216.79 15.49 216.33 15.08Q215.87 14.68 215.87 13.77L215.87 13.77L215.87 10.36L215.15 10.36L215.15 9.32L215.87 9.32L215.87 7.78L217.16 7.78L217.16 9.32L218.66 9.32L218.66 10.36ZM221.11 10.21Q221.39 9.74 221.86 9.48Q222.32 9.22 222.96 9.22L222.96 9.22L222.96 10.54L222.64 10.54Q221.89 10.54 221.5 10.92Q221.11 11.3 221.11 12.24L221.11 12.24L221.11 15.49L219.84 15.49L219.84 9.32L221.11 9.32L221.11 10.21ZM228.45 9.32L229.73 9.32L229.73 15.49L228.45 15.49L228.45 14.76Q228.15 15.14 227.66 15.36Q227.17 15.58 226.63 15.58L226.63 15.58Q225.9 15.58 225.32 15.28Q224.74 14.97 224.41 14.38Q224.08 13.79 224.08 12.95L224.08 12.95L224.08 9.32L225.35 9.32L225.35 12.76Q225.35 13.58 225.76 14.03Q226.18 14.47 226.89 14.47L226.89 14.47Q227.61 14.47 228.03 14.03Q228.45 13.58 228.45 12.76L228.45 12.76L228.45 9.32Z"/><path fill="#0b1f16" d="M139.34 23.89Q139.67 23.46 140.23 23.17Q140.79 22.88 141.49 22.88L141.49 22.88Q142.3 22.88 142.97 23.28Q143.63 23.68 144.01 24.39Q144.39 25.11 144.39 26.04L144.39 26.04Q144.39 26.97 144.01 27.7Q143.63 28.44 142.97 28.84Q142.3 29.25 141.49 29.25L141.49 29.25Q140.79 29.25 140.24 28.97Q139.69 28.68 139.34 28.26L139.34 28.26L139.34 32.09L138.07 32.09L138.07 22.98L139.34 22.98L139.34 23.89ZM143.1 26.04Q143.1 25.4 142.83 24.94Q142.57 24.47 142.14 24.23Q141.71 23.99 141.21 23.99L141.21 23.99Q140.73 23.99 140.3 24.24Q139.87 24.48 139.61 24.95Q139.34 25.42 139.34 26.06L139.34 26.06Q139.34 26.7 139.61 27.18Q139.87 27.65 140.3 27.9Q140.73 28.14 141.21 28.14L141.21 28.14Q141.71 28.14 142.14 27.89Q142.57 27.64 142.83 27.16Q143.1 26.68 143.1 26.04L143.1 26.04ZM146.94 23.88Q147.22 23.41 147.68 23.14Q148.15 22.88 148.79 22.88L148.79 22.88L148.79 24.2L148.46 24.2Q147.71 24.2 147.32 24.58Q146.94 24.96 146.94 25.9L146.94 25.9L146.94 29.15L145.66 29.15L145.66 22.98L146.94 22.98L146.94 23.88ZM152.64 29.25Q151.76 29.25 151.06 28.86Q150.35 28.46 149.95 27.74Q149.55 27.01 149.55 26.06L149.55 26.06Q149.55 25.12 149.96 24.39Q150.38 23.66 151.09 23.27Q151.81 22.88 152.69 22.88L152.69 22.88Q153.58 22.88 154.3 23.27Q155.01 23.66 155.43 24.39Q155.84 25.12 155.84 26.06L155.84 26.06Q155.84 27 155.42 27.73Q154.99 28.46 154.26 28.86Q153.52 29.25 152.64 29.25L152.64 29.25ZM152.64 28.14Q153.13 28.14 153.56 27.91Q153.99 27.67 154.26 27.2Q154.53 26.73 154.53 26.06L154.53 26.06Q154.53 25.39 154.27 24.92Q154.02 24.46 153.59 24.22Q153.16 23.99 152.67 23.99L152.67 23.99Q152.18 23.99 151.76 24.22Q151.34 24.46 151.09 24.92Q150.85 25.39 150.85 26.06L150.85 26.06Q150.85 27.06 151.36 27.6Q151.87 28.14 152.64 28.14L152.64 28.14ZM160.1 24.02L158.6 24.02L158.6 27.44Q158.6 27.79 158.76 27.94Q158.92 28.09 159.31 28.09L159.31 28.09L160.1 28.09L160.1 29.15L159.09 29.15Q158.23 29.15 157.77 28.75Q157.31 28.35 157.31 27.44L157.31 27.44L157.31 24.02L156.58 24.02L156.58 22.98L157.31 22.98L157.31 21.45L158.6 21.45L158.6 22.98L160.1 22.98L160.1 24.02ZM166.93 25.92Q166.93 26.26 166.88 26.54L166.88 26.54L162.17 26.54Q162.23 27.28 162.72 27.73Q163.21 28.18 163.93 28.18L163.93 28.18Q164.96 28.18 165.38 27.32L165.38 27.32L166.76 27.32Q166.48 28.17 165.75 28.71Q165.01 29.25 163.93 29.25L163.93 29.25Q163.04 29.25 162.34 28.86Q161.64 28.46 161.25 27.74Q160.85 27.01 160.85 26.06L160.85 26.06Q160.85 25.11 161.23 24.39Q161.62 23.66 162.32 23.27Q163.02 22.88 163.93 22.88L163.93 22.88Q164.8 22.88 165.48 23.26Q166.17 23.64 166.55 24.33Q166.93 25.02 166.93 25.92L166.93 25.92ZM162.18 25.51L165.6 25.51Q165.59 24.81 165.09 24.38Q164.6 23.96 163.87 23.96L163.87 23.96Q163.21 23.96 162.74 24.38Q162.27 24.8 162.18 25.51L162.18 25.51ZM167.76 26.06Q167.76 25.11 168.14 24.39Q168.53 23.66 169.21 23.27Q169.9 22.88 170.78 22.88L170.78 22.88Q171.9 22.88 172.64 23.41Q173.37 23.94 173.63 24.93L173.63 24.93L172.25 24.93Q172.08 24.47 171.71 24.21Q171.34 23.96 170.78 23.96L170.78 23.96Q170 23.96 169.53 24.51Q169.07 25.06 169.07 26.06L169.07 26.06Q169.07 27.06 169.53 27.62Q170 28.18 170.78 28.18L170.78 28.18Q171.89 28.18 172.25 27.2L172.25 27.2L173.63 27.2Q173.36 28.14 172.62 28.7Q171.88 29.25 170.78 29.25L170.78 29.25Q169.9 29.25 169.21 28.86Q168.53 28.46 168.14 27.74Q167.76 27.01 167.76 26.06L167.76 26.06ZM177.89 24.02L176.39 24.02L176.39 27.44Q176.39 27.79 176.56 27.94Q176.72 28.09 177.11 28.09L177.11 28.09L177.89 28.09L177.89 29.15L176.89 29.15Q176.02 29.15 175.56 28.75Q175.11 28.35 175.11 27.44L175.11 27.44L175.11 24.02L174.38 24.02L174.38 22.98L175.11 22.98L175.11 21.45L176.39 21.45L176.39 22.98L177.89 22.98L177.89 24.02ZM179.72 22.16Q179.37 22.16 179.14 21.93Q178.9 21.69 178.9 21.35L178.9 21.35Q178.9 21 179.14 20.76Q179.37 20.53 179.72 20.53L179.72 20.53Q180.06 20.53 180.29 20.76Q180.53 21 180.53 21.35L180.53 21.35Q180.53 21.69 180.29 21.93Q180.06 22.16 179.72 22.16L179.72 22.16ZM179.07 22.98L180.35 22.98L180.35 29.15L179.07 29.15L179.07 22.98ZM181.6 26.04Q181.6 25.11 181.99 24.39Q182.37 23.68 183.04 23.28Q183.71 22.88 184.51 22.88L184.51 22.88Q185.24 22.88 185.78 23.17Q186.33 23.45 186.65 23.88L186.65 23.88L186.65 22.98L187.94 22.98L187.94 29.15L186.65 29.15L186.65 28.23Q186.33 28.67 185.77 28.96Q185.21 29.25 184.49 29.25L184.49 29.25Q183.7 29.25 183.03 28.84Q182.37 28.44 181.99 27.7Q181.6 26.97 181.6 26.04L181.6 26.04ZM186.65 26.06Q186.65 25.42 186.39 24.95Q186.13 24.48 185.7 24.24Q185.27 23.99 184.78 23.99L184.78 23.99Q184.29 23.99 183.86 24.23Q183.44 24.47 183.17 24.94Q182.91 25.4 182.91 26.04L182.91 26.04Q182.91 26.68 183.17 27.16Q183.44 27.64 183.87 27.89Q184.3 28.14 184.78 28.14L184.78 28.14Q185.27 28.14 185.7 27.9Q186.13 27.65 186.39 27.18Q186.65 26.7 186.65 26.06L186.65 26.06ZM192.11 26.04Q192.11 25.11 192.49 24.39Q192.88 23.68 193.55 23.28Q194.21 22.88 195.02 22.88L195.02 22.88Q195.75 22.88 196.29 23.17Q196.83 23.45 197.16 23.88L197.16 23.88L197.16 22.98L198.45 22.98L198.45 29.15L197.16 29.15L197.16 28.23Q196.83 28.67 196.27 28.96Q195.71 29.25 195 29.25L195 29.25Q194.2 29.25 193.54 28.84Q192.88 28.44 192.49 27.7Q192.11 26.97 192.11 26.04L192.11 26.04ZM197.16 26.06Q197.16 25.42 196.89 24.95Q196.63 24.48 196.21 24.24Q195.78 23.99 195.29 23.99L195.29 23.99Q194.79 23.99 194.37 24.23Q193.94 24.47 193.68 24.94Q193.42 25.4 193.42 26.04L193.42 26.04Q193.42 26.68 193.68 27.16Q193.94 27.64 194.37 27.89Q194.81 28.14 195.29 28.14L195.29 28.14Q195.78 28.14 196.21 27.9Q196.63 27.65 196.89 27.18Q197.16 26.7 197.16 26.06L197.16 26.06ZM203.24 22.88Q203.97 22.88 204.54 23.18Q205.12 23.48 205.45 24.08Q205.77 24.67 205.77 25.51L205.77 25.51L205.77 29.15L204.51 29.15L204.51 25.7Q204.51 24.87 204.09 24.43Q203.68 23.99 202.96 23.99L202.96 23.99Q202.24 23.99 201.82 24.43Q201.4 24.87 201.4 25.7L201.4 25.7L201.4 29.15L200.13 29.15L200.13 22.98L201.4 22.98L201.4 23.69Q201.72 23.31 202.2 23.09Q202.69 22.88 203.24 22.88L203.24 22.88ZM208.04 22.16Q207.7 22.16 207.46 21.93Q207.23 21.69 207.23 21.35L207.23 21.35Q207.23 21 207.46 20.76Q207.7 20.53 208.04 20.53L208.04 20.53Q208.38 20.53 208.62 20.76Q208.85 21 208.85 21.35L208.85 21.35Q208.85 21.69 208.62 21.93Q208.38 22.16 208.04 22.16L208.04 22.16ZM207.39 22.98L208.67 22.98L208.67 29.15L207.39 29.15L207.39 22.98ZM217.82 22.88Q218.55 22.88 219.13 23.18Q219.7 23.48 220.03 24.08Q220.36 24.67 220.36 25.51L220.36 25.51L220.36 29.15L219.1 29.15L219.1 25.7Q219.1 24.87 218.68 24.43Q218.27 23.99 217.55 23.99L217.55 23.99Q216.84 23.99 216.42 24.43Q216 24.87 216 25.7L216 25.7L216 29.15L214.73 29.15L214.73 25.7Q214.73 24.87 214.32 24.43Q213.9 23.99 213.19 23.99L213.19 23.99Q212.47 23.99 212.05 24.43Q211.63 24.87 211.63 25.7L211.63 25.7L211.63 29.15L210.35 29.15L210.35 22.98L211.63 22.98L211.63 23.69Q211.94 23.31 212.42 23.09Q212.91 22.88 213.45 22.88L213.45 22.88Q214.19 22.88 214.78 23.19Q215.36 23.51 215.67 24.1L215.67 24.1Q215.95 23.54 216.55 23.21Q217.14 22.88 217.82 22.88L217.82 22.88ZM221.56 26.04Q221.56 25.11 221.95 24.39Q222.34 23.68 223 23.28Q223.67 22.88 224.47 22.88L224.47 22.88Q225.2 22.88 225.75 23.17Q226.29 23.45 226.61 23.88L226.61 23.88L226.61 22.98L227.9 22.98L227.9 29.15L226.61 29.15L226.61 28.23Q226.29 28.67 225.73 28.96Q225.17 29.25 224.45 29.25L224.45 29.25Q223.66 29.25 223 28.84Q222.34 28.44 221.95 27.7Q221.56 26.97 221.56 26.04L221.56 26.04ZM226.61 26.06Q226.61 25.42 226.35 24.95Q226.09 24.48 225.66 24.24Q225.24 23.99 224.74 23.99L224.74 23.99Q224.25 23.99 223.83 24.23Q223.4 24.47 223.14 24.94Q222.87 25.4 222.87 26.04L222.87 26.04Q222.87 26.68 223.14 27.16Q223.4 27.64 223.83 27.89Q224.26 28.14 224.74 28.14L224.74 28.14Q225.24 28.14 225.66 27.9Q226.09 27.65 226.35 27.18Q226.61 26.7 226.61 26.06L226.61 26.06ZM229.58 20.86L230.86 20.86L230.86 29.15L229.58 29.15L229.58 20.86ZM238.19 25.92Q238.19 26.26 238.15 26.54L238.15 26.54L233.43 26.54Q233.49 27.28 233.98 27.73Q234.48 28.18 235.19 28.18L235.19 28.18Q236.22 28.18 236.65 27.32L236.65 27.32L238.03 27.32Q237.75 28.17 237.01 28.71Q236.28 29.25 235.19 29.25L235.19 29.25Q234.31 29.25 233.61 28.86Q232.91 28.46 232.51 27.74Q232.11 27.01 232.11 26.06L232.11 26.06Q232.11 25.11 232.5 24.39Q232.89 23.66 233.59 23.27Q234.29 22.88 235.19 22.88L235.19 22.88Q236.07 22.88 236.75 23.26Q237.43 23.64 237.81 24.33Q238.19 25.02 238.19 25.92L238.19 25.92ZM233.45 25.51L236.86 25.51Q236.85 24.81 236.36 24.38Q235.87 23.96 235.14 23.96L235.14 23.96Q234.48 23.96 234.01 24.38Q233.54 24.8 233.45 25.51L233.45 25.51ZM239.45 20.86L240.73 20.86L240.73 29.15L239.45 29.15L239.45 20.86ZM245.08 29.25Q244.21 29.25 243.5 28.86Q242.8 28.46 242.39 27.74Q241.99 27.01 241.99 26.06L241.99 26.06Q241.99 25.12 242.41 24.39Q242.82 23.66 243.54 23.27Q244.25 22.88 245.14 22.88L245.14 22.88Q246.02 22.88 246.74 23.27Q247.46 23.66 247.87 24.39Q248.29 25.12 248.29 26.06L248.29 26.06Q248.29 27 247.86 27.73Q247.43 28.46 246.7 28.86Q245.97 29.25 245.08 29.25L245.08 29.25ZM245.08 28.14Q245.58 28.14 246.01 27.91Q246.44 27.67 246.71 27.2Q246.98 26.73 246.98 26.06L246.98 26.06Q246.98 25.39 246.72 24.92Q246.46 24.46 246.03 24.22Q245.61 23.99 245.12 23.99L245.12 23.99Q244.62 23.99 244.2 24.22Q243.78 24.46 243.54 24.92Q243.29 25.39 243.29 26.06L243.29 26.06Q243.29 27.06 243.8 27.6Q244.31 28.14 245.08 28.14L245.08 28.14ZM250.83 23.88Q251.11 23.41 251.57 23.14Q252.04 22.88 252.68 22.88L252.68 22.88L252.68 24.2L252.35 24.2Q251.6 24.2 251.21 24.58Q250.83 24.96 250.83 25.9L250.83 25.9L250.83 29.15L249.55 29.15L249.55 22.98L250.83 22.98L250.83 23.88Z"/></svg>
